<svg width="83" height="110" viewBox="0 0 83 110" fill="none" xmlns="http://www.w3.org/2000/svg">
<path d="M7.53775 100.459L0 21.4659H82.8283L75.2823 100.447L41.3633 109.233L7.53775 100.459Z" fill="#E44D26"/>
<path d="M41.4142 102.502L68.8221 95.4036L75.271 27.925H41.4142V102.502Z" fill="#F16529"/>
<path d="M41.4142 57.2212H27.6933L26.7455 47.3008H41.4142V37.6129H15.4129L15.6614 40.212L18.2099 66.9087H41.4142V57.2212ZM41.4142 82.3811L41.3686 82.3927L29.8205 79.4792L29.0822 71.753H18.6733L20.1262 86.9642L41.3667 92.4731L41.4142 92.4607V82.3811Z" fill="#EBEBEB"/>
<path d="M7.70642 0H12.9758V4.86407H17.796V0H23.0656V14.7297H17.796V9.79743H12.9758V14.7297H7.7068L7.70642 0ZM29.9955 4.88482H25.3567V0H39.9069V4.88482H35.2658V14.7297H29.9957V4.88482H29.9955ZM42.2157 0H47.7106L51.0906 5.17572L54.4673 0H59.9641V14.7297H54.7154V7.42871L51.09 12.666H50.9994L47.3716 7.42871V14.7297H42.2155V0H42.2157ZM62.5862 0H67.8571V9.8611H75.2679V14.7297H62.5862V0Z" fill="black"/>
<path d="M41.3785 57.2211V66.9086H54.1472L52.9434 79.4731L41.3785 82.3891V92.4679L62.636 86.9641L62.7914 85.3269L65.2285 59.8227L65.4815 57.2211H62.6875H41.3785ZM41.3785 37.6129V47.3008H66.4251L66.6328 45.1231L67.1053 40.212L67.3534 37.6129H41.3785Z" fill="white"/>
</svg>
