<svg width="83" height="110" viewBox="0 0 83 110" fill="none" xmlns="http://www.w3.org/2000/svg">
<path d="M7.7097 100.462L0.171753 21.4863H83.0001L75.4543 100.449L41.5352 109.233L7.7097 100.462Z" fill="#EFC725"/>
<path d="M41.5162 102.42L68.9246 95.3228L75.3732 27.8462H41.5162V102.42Z" fill="#FBDE34"/>
<path d="M41.3476 85.6608L41.3025 85.673L29.7542 82.7584L29.0154 75.031H23.4044H18.6068L20.0595 90.2448L41.2997 95.755L41.3476 95.7423V85.6608Z" fill="#EBEBEB"/>
<path d="M42.7444 70.1865V60.5011H29.9758L31.4731 45.3003L42.7731 45.0192L42.7444 34.9473H22.0981L21.3312 42.0868L18.8941 67.5858L18.6413 70.1865H21.4357H42.7444Z" fill="#EBEBEB"/>
<path d="M42.6743 45.033L42.7196 45.021L54.0449 45.658L55.0059 55.6581H60.6172H65.415L63.6011 36.9449L42.7221 34.9431L42.6743 34.9556V45.033Z" fill="white"/>
<path d="M64.3459 45.0626L63.4574 34.9473H41.5695V41.2294V45.0374V45.0626H64.3459Z" fill="white"/>
<path d="M41.3117 60.5061V70.1925H54.0803L52.8768 82.7552L41.3117 85.6719V95.75L62.5694 90.2461L62.7251 88.6096L65.1622 63.1072L65.415 60.5061H62.6207H41.3117Z" fill="white"/>
<path d="M56.1896 4.04357H49.3147L56.4644 11.29V14.739H41.7386V10.7006H48.8867L41.7386 3.45443V0H56.1896V4.04357Z" fill="#151515"/>
<path d="M39.1161 0.00756836V14.7395H26.4342V9.87006H33.8449V0.00756836H39.1156H39.1161Z" fill="#020202"/>
</svg>
