<svg width="100" height="100" viewBox="0 0 100 100" fill="none" xmlns="http://www.w3.org/2000/svg">
<rect width="100" height="100" fill="#00BFFF"/>
<path d="M50.24 59.22H43.45V70H32.39V29.75H50.73C56.2833 29.75 60.6933 31.08 63.96 33.74C67.2267 36.3533 68.86 39.97 68.86 44.59C68.86 47.53 68.1367 50.0967 66.69 52.29C65.29 54.4367 63.2833 56.1167 60.67 57.33L69.63 70H57.73L50.24 59.22ZM57.73 44.59C57.73 42.5833 57.0767 41.0433 55.77 39.97C54.4633 38.8967 52.5267 38.36 49.96 38.36H43.45V50.82H49.96C52.5267 50.82 54.4633 50.2833 55.77 49.21C57.0767 48.1367 57.73 46.5967 57.73 44.59Z" fill="#CD0642"/>
<path d="M31.408 56.198C30.316 56.198 29.332 55.97 28.456 55.514C27.58 55.046 26.89 54.404 26.386 53.588C25.882 52.772 25.63 51.854 25.63 50.834C25.63 49.814 25.882 48.896 26.386 48.08C26.89 47.252 27.58 46.61 28.456 46.154C29.332 45.686 30.316 45.452 31.408 45.452C32.404 45.452 33.262 45.602 33.982 45.902C34.714 46.202 35.344 46.682 35.872 47.342L34.036 49.016C33.352 48.188 32.512 47.774 31.516 47.774C30.64 47.774 29.914 48.056 29.338 48.62C28.774 49.184 28.492 49.922 28.492 50.834C28.492 51.434 28.618 51.968 28.87 52.436C29.134 52.892 29.494 53.246 29.95 53.498C30.418 53.75 30.94 53.876 31.516 53.876C32.512 53.876 33.352 53.462 34.036 52.634L35.872 54.308C35.356 54.956 34.726 55.436 33.982 55.748C33.25 56.048 32.392 56.198 31.408 56.198ZM42.4479 56.198C41.3439 56.198 40.3479 55.97 39.4599 55.514C38.5839 55.046 37.8939 54.404 37.3899 53.588C36.8859 52.772 36.6339 51.854 36.6339 50.834C36.6339 49.814 36.8859 48.896 37.3899 48.08C37.8939 47.252 38.5839 46.61 39.4599 46.154C40.3479 45.686 41.3439 45.452 42.4479 45.452C43.5519 45.452 44.5419 45.686 45.4179 46.154C46.3059 46.61 47.0019 47.252 47.5059 48.08C48.0099 48.896 48.2619 49.814 48.2619 50.834C48.2619 51.854 48.0099 52.772 47.5059 53.588C47.0019 54.404 46.3059 55.046 45.4179 55.514C44.5419 55.97 43.5519 56.198 42.4479 56.198ZM42.4479 53.876C42.9999 53.876 43.4979 53.744 43.9419 53.48C44.3979 53.216 44.7519 52.856 45.0039 52.4C45.2559 51.932 45.3819 51.41 45.3819 50.834C45.3819 50.246 45.2559 49.724 45.0039 49.268C44.7519 48.8 44.3979 48.434 43.9419 48.17C43.4979 47.906 42.9999 47.774 42.4479 47.774C41.8959 47.774 41.3919 47.906 40.9359 48.17C40.4919 48.434 40.1379 48.8 39.8739 49.268C39.6219 49.724 39.4959 50.246 39.4959 50.834C39.4959 51.41 39.6219 51.932 39.8739 52.4C40.1379 52.856 40.4919 53.216 40.9359 53.48C41.3919 53.744 41.8959 53.876 42.4479 53.876ZM50.2747 45.65H55.1527C56.3287 45.65 57.3607 45.86 58.2487 46.28C59.1367 46.7 59.8207 47.3 60.3007 48.08C60.7927 48.86 61.0387 49.778 61.0387 50.834C61.0387 51.878 60.7927 52.79 60.3007 53.57C59.8207 54.35 59.1367 54.95 58.2487 55.37C57.3607 55.79 56.3287 56 55.1527 56H50.2747V45.65ZM55.0627 53.768C56.0227 53.768 56.7787 53.516 57.3307 53.012C57.8827 52.496 58.1587 51.77 58.1587 50.834C58.1587 49.898 57.8827 49.172 57.3307 48.656C56.7787 48.14 56.0227 47.882 55.0627 47.882H53.1187V53.768H55.0627ZM71.388 53.822V56H63.054V45.65H71.19V47.828H65.862V49.718H70.578V51.788H65.862V53.822H71.388Z" fill="white"/>
</svg>
